HIERARCHY
ROOT hip
{
	OFFSET 0.000000 0.000000 0.000000 
	CHANNELS 6 Xposition Yposition Zposition Xrotation Zrotation Yrotation
	JOINT abdomen
	{
		OFFSET 0.000000 3.402643 0.000000 
		CHANNELS 3 Xrotation Zrotation Yrotation
		JOINT chest
		{
			OFFSET 0.000000 8.438565 -0.680529 
			CHANNELS 3 Xrotation Zrotation Yrotation
			JOINT neck
			{
				OFFSET 0.000000 10.207942 -0.272212 
				CHANNELS 3 Xrotation Zrotation Yrotation
				JOINT head
				{
					OFFSET 0.000000 3.130431 0.000000 
					CHANNELS 3 Xrotation Zrotation Yrotation
					End Site
					{
						OFFSET 0.000000 3.130435 0.000000 
					}
				}
			}
			JOINT lCollar
			{
				OFFSET 3.470700 6.669187 -0.816635 
				CHANNELS 3 Yrotation Zrotation Xrotation
				JOINT lShldr
				{
					OFFSET 3.198488 0.000000 0.000000 
					CHANNELS 3 Zrotation Yrotation Xrotation
					JOINT lForeArm
					{
						OFFSET 10.139888 0.000000 0.000000 
						CHANNELS 3 Yrotation Zrotation Xrotation
						JOINT lHand
						{
							OFFSET 8.370511 0.000000 0.000000 
							CHANNELS 3 Zrotation Yrotation Xrotation
							End Site
							{
								OFFSET 4.083176 0.000000 0.000000 
							}
						}
					}
				}
			}
			JOINT rCollar
			{
				OFFSET -3.470700 6.669187 -0.816635 
				CHANNELS 3 Yrotation Zrotation Xrotation
				JOINT rShldr
				{
					OFFSET -3.198488 0.000000 0.000000 
					CHANNELS 3 Zrotation Yrotation Xrotation
					JOINT rForeArm
					{
						OFFSET -10.139888 0.000000 0.000000 
						CHANNELS 3 Yrotation Zrotation Xrotation
						JOINT rHand
						{
							OFFSET -8.370511 0.000000 0.000000 
							CHANNELS 3 Zrotation Yrotation Xrotation
							End Site
							{
								OFFSET -4.083176 0.000000 0.000000 
							}
						}
					}
				}
			}
		}
	}
	JOINT lThigh
	{
		OFFSET 5.308129 -1.633274 1.361059 
		CHANNELS 3 Xrotation Zrotation Yrotation
		JOINT lShin
		{
			OFFSET -2.041588 -20.007561 0.000000 
			CHANNELS 3 Xrotation Zrotation Yrotation
			JOINT lFoot
			{
				OFFSET 0.000000 -19.190928 -1.224953 
				CHANNELS 3 Xrotation Yrotation Zrotation
				End Site
				{
					OFFSET 0.000000 -2.449906 4.627600 
				}
			}
		}
	}
	JOINT rThigh
	{
		OFFSET -5.308129 -1.633274 1.361059 
		CHANNELS 3 Xrotation Zrotation Yrotation
		JOINT rShin
		{
			OFFSET 2.041588 -20.007561 0.000000 
			CHANNELS 3 Xrotation Zrotation Yrotation
			JOINT rFoot
			{
				OFFSET 0.000000 -19.190928 -1.224953 
				CHANNELS 3 Xrotation Yrotation Zrotation
				End Site
				{
					OFFSET 0.000000 -2.449906 4.627600 
				}
			}
		}
	}
}
MOTION
Frames: 10
Frame Time: 0.033333
-1.611241 49.020267 17.416250 20.751951 1.962891 11.650392 0.000000 0.000000 0.000000 11.455078 -4.482422 2.235565 15.996095 -5.605469 -1.758766 -15.458984 -0.312500 -3.847710 -4.794922 -16.484375 8.955078 -47.773438 -8.496094 52.293480 -25.087891 9.453125 5.585938 -1.025391 3.388672 -20.615238 11.162109 6.181641 10.145432 24.707031 22.929688 38.525391 35.888672 -12.167970 10.177838 -64.355469 -48.515625 9.003905 -30.554134 2.460771 -11.015968 22.444757 -0.528249 -1.327551 -10.786703 -0.814236 -8.574153 -21.517607 -9.832773 11.970653 31.238382 -0.727821 1.024759 -21.068123 -7.966949 4.482637 
-1.471661 49.029568 17.876152 20.927734 2.294922 12.128906 0.000000 0.000000 0.000000 10.927734 -4.492187 2.285156 16.005859 -5.546875 -2.148437 -15.107422 0.039062 -4.208984 -4.912109 -16.611326 8.430527 -47.861328 -8.164063 52.674393 -24.912109 9.443359 5.574570 -1.240234 3.427734 -19.726563 11.289063 5.742188 9.687499 24.580078 22.841797 40.394417 35.888672 -12.167970 10.177838 -63.603516 -49.003906 8.869586 -29.867922 1.778006 -10.729182 22.103712 -0.332001 -1.092954 -11.201685 -0.919429 -8.056468 -21.430035 -10.379392 11.671662 31.746794 -0.825559 1.191207 -21.196039 -8.140295 4.155090 
-1.356228 49.048466 18.365017 20.927734 2.294922 12.480469 0.000000 0.000000 0.000000 10.751954 -4.326172 2.323482 15.830078 -5.136719 -2.412984 -14.931643 0.224609 -4.560544 -4.980469 -16.406250 8.056641 -48.056641 -8.007812 52.656250 -25.263672 9.462891 5.595703 -1.064453 3.232422 -19.403748 11.210938 5.644532 9.334976 24.794922 22.412107 41.956852 36.250004 -12.158203 10.226665 -63.974613 -49.355469 9.101562 -29.006235 1.602097 -10.739919 21.926857 -0.338191 -1.115793 -11.540207 -0.997498 -8.118360 -20.592615 -10.340830 10.968878 32.103752 -1.001133 1.146152 -20.507650 -7.936089 4.333942 
-1.266003 49.072178 18.851955 20.751953 2.128906 12.939816 0.000000 0.000000 0.000000 10.390624 -4.150391 2.382812 15.644531 -5.097656 -2.539063 -14.755858 0.048828 -4.560538 -5.019532 -16.220705 7.900390 -48.154297 -7.832032 51.738285 -25.800781 9.482422 5.644531 -0.673828 3.154297 -19.951174 11.074218 5.751953 9.101563 25.195313 21.630861 43.265316 36.601563 -12.158203 10.265728 -64.677742 -49.697262 9.697264 -28.301664 1.749202 -10.834542 21.747511 -0.204914 -1.221473 -11.967650 -1.603018 -7.841033 -20.393290 -10.554453 10.092051 33.337936 -0.825690 1.243878 -19.394110 -7.228255 4.192721 
-1.198189 49.091118 19.299709 20.751951 1.962891 13.232423 0.000000 0.000000 0.000000 10.214844 -3.984375 2.255860 15.458982 -5.136718 -2.490234 -14.931641 -0.126953 -4.560568 -5.224609 -16.054688 7.727655 -48.193359 -7.812500 50.498043 -26.875002 9.531251 5.908203 0.214844 3.095703 -20.156250 10.761719 5.673828 9.091796 25.683592 21.191404 44.179691 36.962891 -12.011720 10.371094 -65.546875 -49.853516 10.451520 -27.764870 1.592690 -10.645438 21.922171 -0.273448 -1.250339 -12.311459 -1.846154 -7.576123 -21.294273 -10.516079 9.239417 36.141487 -1.011513 1.115702 -17.730083 -5.272162 3.984730 
-1.156884 49.095264 19.688902 20.742188 1.640625 12.929689 0.000000 0.000000 0.000000 10.039063 -3.808594 2.294948 15.087892 -5.400391 -2.100529 -14.931641 -0.478516 -4.199300 -5.263672 -15.869141 7.568360 -48.154297 -7.949218 48.681637 -28.125000 9.580078 6.004235 1.240234 3.349609 -19.970705 10.625000 5.781250 8.876953 25.917967 21.250000 44.853516 37.324223 -12.001953 10.421951 -65.908203 -49.863281 10.654297 -27.680813 2.275555 -10.265360 22.448078 -0.361308 -1.288007 -13.243644 -2.421920 -7.728968 -23.799812 -10.359070 8.366604 41.413170 -1.012396 1.276844 -14.828230 -2.770353 4.053651 
-1.146473 49.084755 20.029661 21.093750 1.308594 12.285380 0.000000 0.000000 0.000000 9.863281 -3.642578 2.167348 15.078124 -5.664063 -1.757813 -14.931641 -0.830078 -3.662251 -5.292969 -15.673829 7.363280 -47.792969 -7.851562 46.932259 -29.716797 9.492188 6.074219 2.392578 3.847656 -18.886063 10.507813 5.722657 8.691406 25.917969 21.630861 45.364933 37.666016 -11.855470 10.353569 -65.761719 -49.882816 10.422219 -27.581589 2.803025 -9.505807 22.977053 -0.214751 -1.273785 -13.802079 -2.565006 -7.426987 -27.703159 -10.194863 7.165253 47.727962 -1.218110 1.567758 -11.496447 -0.353650 3.928108 
-1.172066 49.076416 20.353502 21.445314 1.142578 11.347852 0.000000 0.000000 0.000000 9.677734 -3.466797 2.207031 14.716797 -5.791016 -1.367188 -14.755858 -1.181641 -3.134967 -5.537109 -15.498048 7.024094 -47.568359 -7.939453 44.980465 -31.679688 9.570313 6.406072 3.681640 4.501953 -17.431860 10.253906 5.605469 8.320313 25.703125 22.333984 45.706841 38.027344 -11.855470 10.392632 -65.048828 -49.873047 10.048829 -27.765076 3.505568 -8.394983 23.516916 -0.026220 -1.455182 -14.314183 -2.787505 -7.383831 -32.041985 -10.164433 5.860769 53.363491 -1.376577 1.512958 -8.779097 0.454631 3.494265 
-1.255303 49.088711 20.694544 21.796875 0.976563 10.234542 0.000000 0.000000 0.000000 9.326172 -3.300781 2.255859 14.707031 -5.966797 -0.665078 -14.580079 -1.357422 -2.607432 -5.576172 -15.302735 6.865234 -47.148438 -7.998046 42.869736 -34.003906 9.511719 6.658542 5.126953 5.117187 -15.615234 10.283202 5.742187 8.115235 25.468750 22.841797 45.638557 38.564453 -11.835938 10.460987 -64.658203 -49.853516 9.892580 -27.594360 4.198898 -7.483158 23.683178 -0.020596 -1.450938 -14.533236 -2.595907 -7.469090 -36.170300 -10.204543 5.011683 55.647289 -1.394522 1.577833 -8.206196 -0.896769 3.642778 
-1.431320 49.116474 21.081713 22.148439 0.644531 9.228625 0.000000 0.000000 0.000000 9.150390 -3.125000 2.294922 14.863282 -5.937500 -0.108432 -14.404297 -1.708984 -2.080078 -5.605469 -14.931639 6.728516 -47.089844 -7.900391 40.537109 -36.494141 9.453125 6.933594 6.376953 5.703125 -13.631839 10.312500 6.054688 7.880859 25.244143 23.164064 45.472591 39.638676 -11.689453 10.646509 -64.775391 -49.296879 10.363688 -27.211443 5.077326 -6.774972 23.665562 0.178595 -1.597326 -15.082236 -2.456230 -7.641279 -39.090179 -10.185209 4.908485 53.014072 -1.267529 1.553734 -9.051190 -2.289417 3.947416 
